# xmcd CD database file
#
# Track frame offsets:
#	150
#	20224
#	36201
#	59278
#	72337
#	89976
#	115314
#	130814
#	141564
#	158276
#	182917
#	195910
#	219912
#
# Disc length: 3904 seconds
#
# Revision: 0
# Processed by: cddbd v1.5.2PL0 Copyright (c) Steve Scherf et al.
# Submitted via: Feurio! 1.65 - http://www.feurio.com
#
DISCID=c00f3e0d
DTITLE='Sir' Oliver Mally's Blues Distillery - Wild Streak
DYEAR=1996
DGENRE=blues
TTITLE0=Wild Streak
TTITLE1=Honey Hush
TTITLE2=Howlin' Wolf
TTITLE3=Sugar Mama
TTITLE4=Can't Get Along With You
TTITLE5=Too Hurt To Cry
TTITLE6=Running In Circles
TTITLE7=High Heel Blues
TTITLE8=I'm Goin' Mad
TTITLE9=You Threw Your Love On Me To Strong
TTITLE10=She's Long And Lean
TTITLE11=All Your Love
TTITLE12=Devil In Disguise
EXTD=ATS Records
EXTT0=
EXTT1=
EXTT2=
EXTT3=
EXTT4=
EXTT5=
EXTT6=
EXTT7=
EXTT8=
EXTT9=
EXTT10=
EXTT11=
EXTT12=Fran this one's for you
PLAYORDER=
